g Mesh_Vfx_Incubator_02_Middle
v -0.0126877 0.03787353 -3.726974E-09
v -0.0125585 0.03759221 -3.772807E-09
v -0.02181638 0.03896315 -3.549452E-09
v -0.01274297 0.03842134 -3.637724E-09
v -0.01465197 -0.04177912 -1.670404E-08
v -0.01220078 -0.04161697 -1.667762E-08
v -0.01228224 -0.04179877 -1.670724E-08
v -0.01230332 -0.04204876 -1.674797E-08
v -0.01203085 -0.04151848 -1.666158E-08
v -0.01174442 -0.04151835 -1.666155E-08
v -0.0122557 0.03748856 -3.789693E-09
v -0.0112627 -0.04157944 -1.667151E-08
v -0.01120727 0.03748206 -8.559123E-09
v -0.009828884 0.0374735 -3.792147E-09
v -0.009807488 -0.04169776 -1.669078E-08
v -0.009181339 0.03763131 -3.766435E-09
v -0.008596096 0.0380781 -3.693644E-09
v -0.009485772 -0.041744 -1.669832E-08
v -0.008501591 0.03813282 -3.68473E-09
v -0.009179501 -0.0418278 -1.671197E-08
v -0.008884919 -0.04195625 -1.67329E-08
v -0.008598202 -0.04213652 -1.676227E-08
v -0.00836533 0.03815339 -3.681379E-09
v -0.008126568 -0.04236415 -1.679935E-08
v -0.008211381 0.03815478 -3.681152E-09
v -0.00761797 -0.04244193 -1.681202E-08
v -0.008063866 0.03815196 -3.681612E-09
v -0.0002656098 -0.04260233 -1.683816E-08
v 0.0009305764 -0.04262843 -1.684241E-08
v 0.00941621 0.03815961 -3.680365E-09
v 0.008573704 -0.04235176 -1.679733E-08
v 0.0096311 0.03815005 -3.681922E-09
v 0.008709461 -0.04234135 -1.679564E-08
v 0.009831524 0.03811227 -3.688077E-09
v 0.008841054 -0.04230846 -1.679028E-08
v 0.01001409 0.03803339 -3.700929E-09
v 0.008965443 -0.04223529 -1.677836E-08
v 0.01046558 0.03765995 -3.76177E-09
v 0.009776791 -0.04179871 -1.670723E-08
v 0.01078622 0.0375233 -3.784034E-09
v 0.01064824 -0.04164992 -1.668299E-08
v 0.01113369 0.03746699 -3.793208E-09
v 0.01154384 -0.04161658 -1.667756E-08
v 0.01150436 0.03746752 -3.793121E-09
v 0.01242766 -0.04152634 -1.666285E-08
v 0.01199704 0.03747451 -8.560352E-09
v 0.01316636 0.03748471 -8.558694E-09
v 0.01263826 -0.04155001 -1.666671E-08
v 0.01360988 0.03748858 -3.78969E-09
v 0.0127256 -0.04169374 -1.669013E-08
v 0.01391181 0.03759265 -3.772735E-09
v 0.01782766 -0.041413 -1.664439E-08
v 0.02363637 0.03901309 -3.541316E-09
v 0.0128318 -0.04205188 -1.674848E-08
v 0.01276498 -0.04188516 -1.672132E-08
v 0.01404153 0.03787512 -3.726715E-09
v 0.01409867 0.03842524 -3.637089E-09
v 0.02276879 -0.04053373 -1.650114E-08
v 0.02839017 0.03947385 -3.466248E-09
v 0.02762841 -0.03929854 -1.62999E-08
v 0.03230765 0.04003682 -8.142901E-09
v 0.03237973 -0.03759184 -1.602185E-08
v 0.03524714 0.04045925 -3.305706E-09
v 0.03369304 -0.03699599 -1.592477E-08
v 0.03734425 0.04090574 -3.232963E-09
v 0.03496087 -0.03632068 -1.581475E-08
v 0.03939774 0.04151647 -3.133463E-09
v 0.03617058 -0.03554611 -1.568855E-08
v 0.03730946 -0.03465248 -1.554296E-08
v 0.03824193 -0.03371167 -1.538968E-08
v 0.04138617 0.04236199 -2.99571E-09
v 0.03958445 -0.02619865 -1.416566E-08
v 0.04149564 0.04241584 -2.986937E-09
v 0.04172282 0.04247998 -2.976488E-09
v 0.03962033 -0.02541051 -1.403725E-08
v 0.03977953 -0.0225183 -1.356605E-08
v 0.03975686 -0.02462682 -1.390957E-08
v 0.04184663 0.04246779 -2.978474E-09
v 0.04160684 0.04245892 -2.979919E-09
v 0.03952057 -0.02955209 -1.4712E-08
v 0.03961834 -0.02777951 -1.442321E-08
v 0.03952155 -0.03014183 -1.480808E-08
v 0.03895311 -0.03266474 -1.521912E-08
v 0.03939549 -0.031484 -1.502675E-08
v -0.0182659 -0.04128778 -1.662399E-08
v -0.02782879 0.03952523 -3.457877E-09
v -0.02185008 -0.04065157 -1.652034E-08
v -0.02539841 -0.03984336 -1.638866E-08
v -0.03081207 0.03988988 -3.398468E-09
v -0.02890481 -0.03883606 -1.622455E-08
v -0.03120584 -0.03804526 -1.609572E-08
v -0.03378204 0.04034546 -3.324245E-09
v -0.03344146 -0.0371168 -1.594445E-08
v -0.03557714 -0.03598482 -1.576003E-08
v -0.03673471 0.04092211 -3.230296E-09
v -0.03757831 -0.03458351 -1.553173E-08
v -0.03784919 0.04119117 -3.186461E-09
v -0.03845285 -0.03379833 -1.54038E-08
v -0.03894614 0.04151388 -3.133886E-09
v -0.03919081 -0.03291862 -1.526048E-08
v -0.040021 0.04190363 -3.070387E-09
v -0.03973199 -0.03191477 -1.509693E-08
v -0.04106921 0.04237385 -2.993779E-09
v -0.04001622 -0.0307571 -1.490832E-08
v -0.04008282 -0.02681726 -1.426644E-08
v -0.04125043 0.04247232 -2.977736E-09
v -0.04008681 -0.02994769 -1.477645E-08
v -0.040204 -0.02750907 -1.437915E-08
v -0.04163104 0.04262843 -2.952302E-09
v -0.041435 0.04256681 -2.962341E-09
v -0.04008196 -0.02612566 -1.415376E-08
v -0.04020892 -0.02474265 -1.392845E-08
v -0.04184662 0.04262827 -2.952328E-09
v -0.04125043 0.04247232 -2.977736E-09
v -0.04008282 -0.02681726 -1.426644E-08
v -0.04008196 -0.02612566 -1.415376E-08
vt 0.3879614 0.7042667
vt 0.3891836 0.7023182
vt 0.3016046 0.7118133
vt 0.3874386 0.7080609
vt 0.3693795 0.1525932
vt 0.3925676 0.1537163
vt 0.3917971 0.1524571
vt 0.3915976 0.1507257
vt 0.3941751 0.1543984
vt 0.3968849 0.1543993
vt 0.3920482 0.7016005
vt 0.4014419 0.1539762
vt 0.4019662 0.7015554
vt 0.4150057 0.701496
vt 0.4152081 0.1531568
vt 0.4211314 0.7025891
vt 0.4266678 0.7056835
vt 0.4182515 0.1528364
vt 0.4275618 0.7060626
vt 0.4211488 0.152256
vt 0.4239355 0.1513663
vt 0.4266479 0.1501178
vt 0.4288508 0.706205
vt 0.4311095 0.1485412
vt 0.4303071 0.7062147
vt 0.4359208 0.1480027
vt 0.4317027 0.7061951
vt 0.5054739 0.1468916
vt 0.5167897 0.1467109
vt 0.5970633 0.706248
vt 0.5890933 0.1486271
vt 0.5990962 0.706182
vt 0.5903776 0.1486992
vt 0.6009922 0.7059203
vt 0.5916224 0.1489269
vt 0.6027193 0.7053738
vt 0.5927991 0.1494339
vt 0.6069903 0.7027875
vt 0.6004744 0.1524575
vt 0.6100236 0.7018409
vt 0.6087183 0.153488
vt 0.6133105 0.7014509
vt 0.6171905 0.153719
vt 0.6168172 0.7014546
vt 0.6255514 0.1543439
vt 0.6214779 0.7015032
vt 0.6325396 0.7015736
vt 0.6275438 0.15418
vt 0.6367353 0.7016006
vt 0.62837 0.1531845
vt 0.6395915 0.7023214
vt 0.6766353 0.1551289
vt 0.7315854 0.7121593
vt 0.6293746 0.150704
vt 0.6287425 0.1518587
vt 0.6408187 0.7042776
vt 0.6413593 0.7080879
vt 0.7233781 0.1612188
vt 0.776556 0.7153506
vt 0.7693499 0.1697736
vt 0.8136153 0.7192497
vt 0.8142971 0.1815943
vt 0.8414227 0.7221753
vt 0.8267208 0.1857211
vt 0.8612612 0.7252678
vt 0.8387146 0.1903983
vt 0.8806872 0.7294976
vt 0.8501583 0.195763
vt 0.8609322 0.2019522
vt 0.8697532 0.2084682
vt 0.8994976 0.7353538
vt 0.8824535 0.2605034
vt 0.9005333 0.7357267
vt 0.9026823 0.7361709
vt 0.8827928 0.265962
vt 0.8842989 0.2859934
vt 0.8840844 0.2713898
vt 0.9038534 0.7360865
vt 0.9015851 0.736025
vt 0.8818492 0.2372774
vt 0.8827741 0.2495543
vt 0.8818585 0.233193
vt 0.8764809 0.2157193
vt 0.8806659 0.2238971
vt 0.3351919 0.1559962
vt 0.2447275 0.7157064
vt 0.3012857 0.1604027
vt 0.2677187 0.1660002
vt 0.2165057 0.7182319
vt 0.2345483 0.1729768
vt 0.2127807 0.1784539
vt 0.18841 0.7213872
vt 0.1916318 0.1848844
vt 0.1714284 0.1927245
vt 0.1604778 0.725381
vt 0.1524974 0.2024299
vt 0.1499349 0.7272446
vt 0.1442244 0.2078681
vt 0.1395579 0.7294797
vt 0.1372433 0.2139609
vt 0.1293897 0.7321792
vt 0.1321238 0.2209136
vt 0.1194737 0.7354358
vt 0.1294349 0.2289315
vt 0.1288048 0.2562189
vt 0.1177593 0.736118
vt 0.1287671 0.2345376
vt 0.1276585 0.2514274
vt 0.1141588 0.7371992
vt 0.1160133 0.7367724
vt 0.128813 0.2610089
vt 0.1276119 0.2705876
vt 0.1121194 0.737198
vt 0.1177593 0.736118
vt 0.1288048 0.2562189
vt 0.128813 0.2610089
vn 0 -1.629212E-07 1
vn 0 -1.629208E-07 1
vn 0 -1.629207E-07 1
vn 0 -1.629212E-07 1
vn 0 -1.629206E-07 1
vn 0 -1.629204E-07 1
vn 0 -1.629197E-07 1
vn 0 -1.629197E-07 1
vn 0 -1.629207E-07 1
vn 1.625136E-06 -1.425109E-07 1
vn 1.402025E-06 -1.453129E-07 1
vn 1.435889E-06 -1.442899E-07 1
vn -1.589681E-07 -1.120142E-07 1
vn -1.592081E-06 -1.340446E-07 1
vn 0 -1.629207E-07 1
vn 0 -1.629207E-07 1
vn 0 -1.629207E-07 1
vn 0 -1.629207E-07 1
vn 0 -1.629207E-07 1
vn 0 -1.629207E-07 1
vn 0 -1.629207E-07 1
vn 0 -1.629207E-07 1
vn 0 -1.629207E-07 1
vn 0 -1.629207E-07 1
vn 0 -1.629207E-07 1
vn 0 -1.629207E-07 1
vn 0 -1.629207E-07 1
vn 0 -1.629207E-07 1
vn 0 -1.629207E-07 1
vn 0 -1.629207E-07 1
vn 0 -1.629207E-07 1
vn 0 -1.629207E-07 1
vn 0 -1.629207E-07 1
vn 0 -1.629207E-07 1
vn 0 -1.629207E-07 1
vn 0 -1.629207E-07 1
vn 0 -1.629207E-07 1
vn 0 -1.629207E-07 1
vn 0 -1.629207E-07 1
vn 0 -1.629207E-07 1
vn 0 -1.629207E-07 1
vn 0 -1.629207E-07 1
vn 1.653045E-06 -1.435996E-07 1
vn 1.738662E-06 -1.425989E-07 1
vn -1.914171E-06 -8.818234E-08 1
vn 1.723747E-06 -1.124767E-07 1
vn -3.685361E-06 -7.795335E-08 1
vn -2.643843E-06 -1.233633E-07 1
vn -3.259115E-06 -1.141575E-07 1
vn 0 -1.629201E-07 1
vn 0 -1.629206E-07 1
vn 0 -1.629207E-07 1
vn 0 -1.629207E-07 1
vn 0 -1.629193E-07 1
vn 0 -1.629193E-07 1
vn 0 -1.629203E-07 1
vn 0 -1.629203E-07 1
vn 2.220392E-07 -1.650679E-07 1
vn 3.045917E-07 -1.658662E-07 1
vn 9.173843E-08 -1.428572E-07 1
vn -1.220638E-07 -1.308932E-07 1
vn -4.062605E-07 -1.241133E-07 1
vn -2.761539E-07 -1.365415E-07 1
vn 0 -1.629207E-07 1
vn 0 -1.629207E-07 1
vn 0 -1.629207E-07 1
vn 0 -1.629207E-07 1
vn 0 -1.629207E-07 1
vn 0 -1.629207E-07 1
vn 0 -1.629206E-07 1
vn 0 -1.629206E-07 1
vn 0 -1.629207E-07 1
vn 0 -1.629201E-07 1
vn 0 -1.629201E-07 1
vn 0 -1.629252E-07 1
vn 0 -1.629198E-07 1
vn 0 -1.629212E-07 1
vn 0 -1.629207E-07 1
vn 0 -1.629041E-07 1
vn 0 -1.629208E-07 1
vn 0 -1.62921E-07 1
vn 0 -1.629214E-07 1
vn 0 -1.629196E-07 1
vn 0 -1.629211E-07 1
vn 0 -1.629207E-07 1
vn 0 -1.629207E-07 1
vn 0 -1.629207E-07 1
vn 0 -1.629207E-07 1
vn 0 -1.629207E-07 1
vn 0 -1.629207E-07 1
vn 0 -1.629207E-07 1
vn 0 -1.629207E-07 1
vn 0 -1.629207E-07 1
vn 0 -1.629207E-07 1
vn 0 -1.629207E-07 1
vn 0 -1.629207E-07 1
vn 0 -1.629207E-07 1
vn 0 -1.629207E-07 1
vn 0 -1.629207E-07 1
vn 0 -1.629207E-07 1
vn 0 -1.629207E-07 1
vn 0 -1.629207E-07 1
vn 0 -1.629207E-07 1
vn 0 -1.629207E-07 1
vn 0 -1.629207E-07 1
vn 0 -1.629209E-07 1
vn 0 -1.62921E-07 1
vn 0 -1.62921E-07 1
vn 0 -1.629209E-07 1
vn 0 -1.629278E-07 1
vn 0 1.629216E-07 -1
vn 0 -1.629209E-07 1
vn 0 -1.629207E-07 1
vn 0 -1.629209E-07 1
vn 0 -1.629207E-07 1
vn 0 1.629216E-07 -1
g Mesh_Vfx_Incubator_02_Middle_0
f 3/3/3 2/2/2 1/1/1
f 4/4/4 3/3/3 1/1/1
f 2/2/2 3/3/3 5/5/5
f 6/6/6 2/2/2 5/5/5
f 7/7/7 6/6/6 5/5/5
f 8/8/8 7/7/7 5/5/5
f 9/9/9 2/2/2 6/6/6
f 2/2/2 9/9/9 10/10/10
f 11/11/11 2/2/2 10/10/10
f 11/11/11 10/10/10 12/12/12
f 13/13/13 11/11/11 12/12/12
f 14/14/14 13/13/13 12/12/12
f 14/14/14 12/12/12 15/15/15
f 16/16/16 14/14/14 15/15/15
f 17/17/17 16/16/16 15/15/15
f 17/17/17 15/15/15 18/18/18
f 19/19/19 17/17/17 18/18/18
f 19/19/19 18/18/18 20/20/20
f 19/19/19 20/20/20 21/21/21
f 19/19/19 21/21/21 22/22/22
f 22/22/22 23/23/23 19/19/19
f 23/23/23 22/22/22 24/24/24
f 25/25/25 23/23/23 24/24/24
f 25/25/25 24/24/24 26/26/26
f 27/27/27 25/25/25 26/26/26
f 28/28/28 27/27/27 26/26/26
f 27/27/27 28/28/28 29/29/29
f 30/30/30 27/27/27 29/29/29
f 30/30/30 29/29/29 31/31/31
f 32/32/32 30/30/30 31/31/31
f 32/32/32 31/31/31 33/33/33
f 34/34/34 32/32/32 33/33/33
f 34/34/34 33/33/33 35/35/35
f 36/36/36 34/34/34 35/35/35
f 36/36/36 35/35/35 37/37/37
f 38/38/38 36/36/36 37/37/37
f 38/38/38 37/37/37 39/39/39
f 40/40/40 38/38/38 39/39/39
f 40/40/40 39/39/39 41/41/41
f 42/42/42 40/40/40 41/41/41
f 42/42/42 41/41/41 43/43/43
f 44/44/44 42/42/42 43/43/43
f 44/44/44 43/43/43 45/45/45
f 46/46/46 44/44/44 45/45/45
f 47/47/47 46/46/46 45/45/45
f 47/47/47 45/45/45 48/48/48
f 49/49/49 47/47/47 48/48/48
f 49/49/49 48/48/48 50/50/50
f 51/51/51 49/49/49 50/50/50
f 51/51/51 50/50/50 52/52/52
f 53/53/53 51/51/51 52/52/52
f 54/54/54 52/52/52 50/50/50
f 55/55/55 54/54/54 50/50/50
f 56/56/56 51/51/51 53/53/53
f 57/57/57 56/56/56 53/53/53
f 53/53/53 52/52/52 58/58/58
f 59/59/59 53/53/53 58/58/58
f 59/59/59 58/58/58 60/60/60
f 61/61/61 59/59/59 60/60/60
f 61/61/61 60/60/60 62/62/62
f 63/63/63 61/61/61 62/62/62
f 63/63/63 62/62/62 64/64/64
f 65/65/65 63/63/63 64/64/64
f 66/66/66 65/65/65 64/64/64
f 67/67/67 65/65/65 66/66/66
f 68/68/68 67/67/67 66/66/66
f 69/69/69 67/67/67 68/68/68
f 67/67/67 69/69/69 70/70/70
f 71/71/71 67/67/67 70/70/70
f 72/72/72 71/71/71 70/70/70
f 73/73/73 71/71/71 72/72/72
f 74/74/74 73/73/73 72/72/72
f 75/75/75 74/74/74 72/72/72
f 76/76/76 74/74/74 75/75/75
f 77/77/77 76/76/76 75/75/75
f 78/78/78 74/74/74 76/76/76
f 79/79/79 73/73/73 74/74/74
f 80/80/80 72/72/72 70/70/70
f 81/81/81 72/72/72 80/80/80
f 82/82/82 80/80/80 70/70/70
f 83/83/83 82/82/82 70/70/70
f 84/84/84 82/82/82 83/83/83
f 85/85/85 5/5/5 3/3/3
f 86/86/86 85/85/85 3/3/3
f 87/87/87 85/85/85 86/86/86
f 88/88/88 87/87/87 86/86/86
f 89/89/89 88/88/88 86/86/86
f 90/90/90 88/88/88 89/89/89
f 91/91/91 90/90/90 89/89/89
f 92/92/92 91/91/91 89/89/89
f 93/93/93 91/91/91 92/92/92
f 94/94/94 93/93/93 92/92/92
f 95/95/95 94/94/94 92/92/92
f 96/96/96 94/94/94 95/95/95
f 97/97/97 96/96/96 95/95/95
f 98/98/98 96/96/96 97/97/97
f 99/99/99 98/98/98 97/97/97
f 100/100/100 98/98/98 99/99/99
f 101/101/101 100/100/100 99/99/99
f 102/102/102 100/100/100 101/101/101
f 103/103/103 102/102/102 101/101/101
f 104/104/104 102/102/102 103/103/103
f 103/103/103 105/105/105 104/104/104
f 103/103/103 106/106/106 105/105/105
f 107/107/107 104/104/104 105/105/105
f 108/108/108 107/107/107 105/105/105
f 110/110/110 109/109/109 106/106/106
f 109/109/109 111/111/111 106/106/106
f 112/112/112 111/111/111 109/109/109
f 113/113/113 112/112/112 109/109/109
f 116/116/116 115/115/115 114/114/114
